<?xml version="1.0" encoding="UTF-8" standalone="no" ?>
<!DOCTYPE svg PUBLIC "-//W3C//DTD SVG 1.1//EN" "http://www.w3.org/Graphics/SVG/1.1/DTD/svg11.dtd">
<svg xmlns="http://www.w3.org/2000/svg" xmlns:xlink="http://www.w3.org/1999/xlink" version="1.1" width="500" height="500" viewBox="0 0 500 500" xml:space="preserve">
<desc>Created with Fabric.js 4.6.0</desc>
<defs>
</defs>
<g transform="matrix(1 0 0 1 250.26 250.26)" id="uOYI5ytV8bQ4ZrGyVTqZh"  >
<path style="stroke: rgb(151,208,179); stroke-width: 0; stroke-dasharray: none; stroke-linecap: butt; stroke-dashoffset: 0; stroke-linejoin: miter; stroke-miterlimit: 4; fill: rgb(0,0,0); fill-rule: nonzero; opacity: 1;" vector-effect="non-scaling-stroke"  transform=" translate(-250, -250)" d="M 0 0 L 500 0 L 500 500 L 0 500 z" stroke-linecap="round" />
</g>
<g transform="matrix(0.71 0.71 -0.71 0.71 136.79 363.19)" id="PMm3kz1GPGcnC4JxEfKwh"  >
<path style="stroke: rgb(163,149,231); stroke-width: 0; stroke-dasharray: none; stroke-linecap: butt; stroke-dashoffset: 0; stroke-linejoin: miter; stroke-miterlimit: 4; fill: rgb(255,255,255); fill-rule: nonzero; opacity: 1;" vector-effect="non-scaling-stroke"  transform=" translate(-70, -55)" d="M 0 0 L 140 0 L 140 110 L 0 110 z" stroke-linecap="round" />
</g>
<g transform="matrix(0.71 0.71 -0.71 0.71 225.18 373.8)" id="HL-UGLxTe61Nw7ROQ1eVf"  >
<path style="stroke: rgb(65,90,131); stroke-width: 0; stroke-dasharray: none; stroke-linecap: butt; stroke-dashoffset: 0; stroke-linejoin: miter; stroke-miterlimit: 4; fill: rgb(0,0,0); fill-rule: nonzero; opacity: 1;" vector-effect="non-scaling-stroke"  transform=" translate(-40, -40)" d="M 40 0 C 62.08 0 80 17.92 80 40 C 80 62.08 62.08 80 40 80 C 17.92 80 0 62.08 0 40 C 0 17.92 17.92 0 40 0 z" stroke-linecap="round" />
</g>
<g transform="matrix(-0.71 -0.71 0.71 -0.71 126.18 274.81)" id="k-cbuChilaVvDt4tIYZzs"  >
<path style="stroke: rgb(65,90,131); stroke-width: 0; stroke-dasharray: none; stroke-linecap: butt; stroke-dashoffset: 0; stroke-linejoin: miter; stroke-miterlimit: 4; fill: rgb(0,0,0); fill-rule: nonzero; opacity: 1;" vector-effect="non-scaling-stroke"  transform=" translate(-40, -40)" d="M 40 0 C 62.08 0 80 17.92 80 40 C 80 62.08 62.08 80 40 80 C 17.92 80 0 62.08 0 40 C 0 17.92 17.92 0 40 0 z" stroke-linecap="round" />
</g>
<g transform="matrix(0.71 0.71 -0.71 0.71 196.54 303.44)" id="qhEul-0dNtNbMrR4ggDAA"  >
<path style="stroke: rgb(234,165,185); stroke-width: 0; stroke-dasharray: none; stroke-linecap: butt; stroke-dashoffset: 0; stroke-linejoin: miter; stroke-miterlimit: 4; fill: rgb(255,255,255); fill-rule: nonzero; opacity: 1;" vector-effect="non-scaling-stroke"  transform=" translate(-30, -30.5)" d="M 0 0 L 60 0 L 60 61 L 0 61 z" stroke-linecap="round" />
</g>
<g transform="matrix(0.71 0.71 -0.71 0.71 196.89 260.66)" id="Y80Abphk1aPmqbAa9oDKZ"  >
<path style="stroke: rgb(222,198,220); stroke-width: 0; stroke-dasharray: none; stroke-linecap: butt; stroke-dashoffset: 0; stroke-linejoin: miter; stroke-miterlimit: 4; fill: rgb(0,0,0); fill-rule: nonzero; opacity: 1;" vector-effect="non-scaling-stroke"  transform=" translate(-15, -15)" d="M 15 0 C 23.28 0 30 6.72 30 15 C 30 23.28 23.28 30 15 30 C 6.720000000000001 30 0 23.28 0 15 C 0 6.720000000000001 6.72 0 15 0 z" stroke-linecap="round" />
</g>
<g transform="matrix(0.71 0.71 -0.71 0.71 239.32 303.09)" id="6tN3lmm4coUKtAqNPzkq-"  >
<path style="stroke: rgb(222,198,220); stroke-width: 0; stroke-dasharray: none; stroke-linecap: butt; stroke-dashoffset: 0; stroke-linejoin: miter; stroke-miterlimit: 4; fill: rgb(0,0,0); fill-rule: nonzero; opacity: 1;" vector-effect="non-scaling-stroke"  transform=" translate(-15, -15)" d="M 15 0 C 23.28 0 30 6.72 30 15 C 30 23.28 23.28 30 15 30 C 6.720000000000001 30 0 23.28 0 15 C 0 6.720000000000001 6.72 0 15 0 z" stroke-linecap="round" />
</g>
<g transform="matrix(0.71 0.71 -0.71 0.71 249.93 250.06)" id="npcpsYUMZewXRek6Tx6DW"  >
<path style="stroke: rgb(120,77,74); stroke-width: 0; stroke-dasharray: none; stroke-linecap: butt; stroke-dashoffset: 0; stroke-linejoin: miter; stroke-miterlimit: 4; fill: rgb(255,255,255); fill-rule: nonzero; opacity: 1;" vector-effect="non-scaling-stroke"  transform=" translate(-15.17, -45.5)" d="M 0 0 L 30.33333 0 L 30.33333 91 L 0 91 z" stroke-linecap="round" />
</g>
<g transform="matrix(-0.71 -0.71 0.71 -0.71 363.19 136.79)" id="V2l1ulMXeCIotRpzNeePP"  >
<path style="stroke: rgb(163,149,231); stroke-width: 0; stroke-dasharray: none; stroke-linecap: butt; stroke-dashoffset: 0; stroke-linejoin: miter; stroke-miterlimit: 4; fill: rgb(255,255,255); fill-rule: nonzero; opacity: 1;" vector-effect="non-scaling-stroke"  transform=" translate(-70, -55)" d="M 0 0 L 140 0 L 140 110 L 0 110 z" stroke-linecap="round" />
</g>
<g transform="matrix(-0.71 -0.71 0.71 -0.71 274.81 126.18)" id="LuYb899F3EWN2TdnK876x"  >
<path style="stroke: rgb(65,90,131); stroke-width: 0; stroke-dasharray: none; stroke-linecap: butt; stroke-dashoffset: 0; stroke-linejoin: miter; stroke-miterlimit: 4; fill: rgb(0,0,0); fill-rule: nonzero; opacity: 1;" vector-effect="non-scaling-stroke"  transform=" translate(-40, -40)" d="M 40 0 C 62.08 0 80 17.92 80 40 C 80 62.08 62.08 80 40 80 C 17.92 80 0 62.08 0 40 C 0 17.92 17.92 0 40 0 z" stroke-linecap="round" />
</g>
<g transform="matrix(0.71 0.71 -0.71 0.71 373.8 225.18)" id="kZtahmNWftywpZT-WMrMY"  >
<path style="stroke: rgb(65,90,131); stroke-width: 0; stroke-dasharray: none; stroke-linecap: butt; stroke-dashoffset: 0; stroke-linejoin: miter; stroke-miterlimit: 4; fill: rgb(0,0,0); fill-rule: nonzero; opacity: 1;" vector-effect="non-scaling-stroke"  transform=" translate(-40, -40)" d="M 40 0 C 62.08 0 80 17.92 80 40 C 80 62.08 62.08 80 40 80 C 17.92 80 0 62.08 0 40 C 0 17.92 17.92 0 40 0 z" stroke-linecap="round" />
</g>
<g transform="matrix(-0.71 -0.71 0.71 -0.71 303.44 196.54)" id="f3zl1qNyA0l3PbjS5qO34"  >
<path style="stroke: rgb(234,165,185); stroke-width: 0; stroke-dasharray: none; stroke-linecap: butt; stroke-dashoffset: 0; stroke-linejoin: miter; stroke-miterlimit: 4; fill: rgb(255,255,255); fill-rule: nonzero; opacity: 1;" vector-effect="non-scaling-stroke"  transform=" translate(-30, -30.5)" d="M 0 0 L 60 0 L 60 61 L 0 61 z" stroke-linecap="round" />
</g>
<g transform="matrix(-0.71 -0.71 0.71 -0.71 303.09 239.32)" id="tk7SzhvKY4bFxoBHILEIA"  >
<path style="stroke: rgb(222,198,220); stroke-width: 0; stroke-dasharray: none; stroke-linecap: butt; stroke-dashoffset: 0; stroke-linejoin: miter; stroke-miterlimit: 4; fill: rgb(0,0,0); fill-rule: nonzero; opacity: 1;" vector-effect="non-scaling-stroke"  transform=" translate(-15, -15)" d="M 15 0 C 23.28 0 30 6.72 30 15 C 30 23.28 23.28 30 15 30 C 6.720000000000001 30 0 23.28 0 15 C 0 6.720000000000001 6.72 0 15 0 z" stroke-linecap="round" />
</g>
<g transform="matrix(-0.71 -0.71 0.71 -0.71 260.66 196.89)" id="p0wirJaJRqBkx26MG9CTQ"  >
<path style="stroke: rgb(222,198,220); stroke-width: 0; stroke-dasharray: none; stroke-linecap: butt; stroke-dashoffset: 0; stroke-linejoin: miter; stroke-miterlimit: 4; fill: rgb(0,0,0); fill-rule: nonzero; opacity: 1;" vector-effect="non-scaling-stroke"  transform=" translate(-15, -15)" d="M 15 0 C 23.28 0 30 6.72 30 15 C 30 23.28 23.28 30 15 30 C 6.720000000000001 30 0 23.28 0 15 C 0 6.720000000000001 6.72 0 15 0 z" stroke-linecap="round" />
</g>
</svg>